<?xml version="1.0" encoding="UTF-8"?>
<svg id="Layer_2" data-name="Layer 2" xmlns="http://www.w3.org/2000/svg" viewBox="0 0 14.46 16">
  <defs>
    <style>
      .cls-1 {
        fill: none;
        stroke: #626368;
        stroke-linecap: round;
        stroke-linejoin: round;
      }
    </style>
  </defs>
  <g id="Layer_1-2" data-name="Layer 1">
    <g id="Settings_outline_icon" data-name="Settings outline icon">
      <path id="Vector_10" data-name="Vector 10" class="cls-1" d="M5.48,2.09c.04-.44,.24-.84,.57-1.13,.32-.29,.75-.46,1.18-.46s.86,.16,1.18,.46c.32,.29,.53,.7,.57,1.13,.02,.28,.12,.55,.27,.79,.15,.24,.36,.44,.6,.58,.24,.14,.52,.22,.8,.23,.28,.01,.56-.04,.82-.16,.4-.18,.85-.21,1.26-.07,.42,.13,.77,.42,.99,.79s.29,.82,.2,1.25c-.09,.43-.34,.8-.69,1.06-.23,.16-.42,.38-.55,.63-.13,.25-.2,.53-.2,.81s.07,.56,.2,.81c.13,.25,.32,.47,.55,.63,.35,.25,.6,.63,.69,1.06,.09,.43,.02,.87-.2,1.25s-.57,.66-.99,.79c-.42,.13-.87,.11-1.26-.07-.26-.12-.54-.17-.82-.16-.28,.01-.56,.09-.8,.23-.24,.14-.45,.34-.6,.58-.15,.24-.24,.51-.27,.79-.04,.44-.24,.84-.57,1.13-.32,.29-.75,.46-1.18,.46s-.86-.16-1.18-.46c-.32-.29-.53-.7-.57-1.13-.02-.28-.12-.55-.27-.79-.15-.24-.36-.44-.6-.58-.24-.14-.52-.22-.8-.23-.28-.01-.56,.04-.82,.16-.4,.18-.85,.21-1.26,.07-.42-.13-.77-.42-.99-.79-.22-.38-.29-.82-.2-1.25,.09-.43,.34-.8,.69-1.06,.23-.16,.42-.38,.55-.63,.13-.25,.2-.53,.2-.81s-.07-.56-.2-.81c-.13-.25-.32-.47-.55-.63-.35-.26-.6-.63-.69-1.06-.09-.43-.02-.87,.2-1.25,.22-.38,.57-.66,.98-.79,.42-.13,.87-.11,1.26,.07,.26,.12,.54,.17,.82,.16,.28-.01,.56-.09,.8-.23,.24-.14,.45-.34,.6-.58,.15-.24,.24-.51,.27-.79"/>
      <path id="Vector_11" data-name="Vector 11" class="cls-1" d="M7.23,10.25c1.24,0,2.25-1.01,2.25-2.25s-1.01-2.25-2.25-2.25-2.25,1.01-2.25,2.25,1.01,2.25,2.25,2.25Z"/>
    </g>
  </g>
</svg>